<svg width="10" height="10" viewBox="0 0 10 10" fill="none" xmlns="http://www.w3.org/2000/svg">
<path d="M4.41669 6.66667C4.41669 6.10417 4.46703 5.69965 4.56773 5.45312C4.66842 5.2066 4.88196 4.9375 5.20835 4.64583C5.49308 4.39583 5.71009 4.17882 5.8594 3.99479C6.0087 3.81076 6.08335 3.60069 6.08335 3.36458C6.08335 3.07986 5.98787 2.84375 5.7969 2.65625C5.60592 2.46875 5.3403 2.375 5.00002 2.375C4.64585 2.375 4.37676 2.48264 4.19273 2.69792C4.0087 2.91319 3.87849 3.13194 3.8021 3.35417L2.72919 2.89583C2.87502 2.45139 3.14238 2.06597 3.53127 1.73958C3.92016 1.41319 4.40974 1.25 5.00002 1.25C5.72919 1.25 6.28995 1.45312 6.68231 1.85937C7.07467 2.26562 7.27085 2.75347 7.27085 3.32292C7.27085 3.67014 7.1962 3.96701 7.0469 4.21354C6.89759 4.46007 6.66321 4.73958 6.34377 5.05208C6.00349 5.37847 5.7969 5.62674 5.72398 5.79687C5.65106 5.96701 5.6146 6.25694 5.6146 6.66667H4.41669ZM5.00002 9.16667C4.77085 9.16667 4.57467 9.08507 4.41148 8.92187C4.24828 8.75868 4.16669 8.5625 4.16669 8.33333C4.16669 8.10417 4.24828 7.90799 4.41148 7.74479C4.57467 7.5816 4.77085 7.5 5.00002 7.5C5.22919 7.5 5.42537 7.5816 5.58856 7.74479C5.75176 7.90799 5.83335 8.10417 5.83335 8.33333C5.83335 8.5625 5.75176 8.75868 5.58856 8.92187C5.42537 9.08507 5.22919 9.16667 5.00002 9.16667Z" fill="black"/>
</svg>
