<svg width="40" height="40" viewBox="0 0 40 40" fill="none" xmlns="http://www.w3.org/2000/svg">
<mask id="mask0_541_63" style="mask-type:luminance" maskUnits="userSpaceOnUse" x="0" y="0" width="40" height="40">
<path d="M40 20C40 8.95431 31.0457 0 20 0C8.95431 0 0 8.95431 0 20C0 31.0457 8.95431 40 20 40C31.0457 40 40 31.0457 40 20Z" fill="white"/>
</mask>
<g mask="url(#mask0_541_63)">
<mask id="mask1_541_63" style="mask-type:alpha" maskUnits="userSpaceOnUse" x="5" y="4" width="30" height="26">
<path d="M16.5359 6C18.0755 3.33334 21.9245 3.33333 23.4641 6L33.8564 24C35.396 26.6667 33.4715 30 30.3923 30H9.60769C6.52849 30 4.60401 26.6667 6.14361 24L16.5359 6Z" fill="#D9D9D9"/>
</mask>
<g mask="url(#mask1_541_63)">
<path d="M40 0H0V40H40V0Z" fill="#FDEAFE"/>
<path fill-rule="evenodd" clip-rule="evenodd" d="M-24.3565 60.0964L-22.8559 57.4956C-21.4259 54.966 -18.4954 49.8352 -12.2649 48.0048C-5.96379 46.1036 3.56661 47.5728 7.04713 42.9924C10.5277 38.4119 7.95829 27.7815 12.5388 24.301C17.1193 20.8205 28.9203 24.4191 32.9509 20.3886C36.9814 16.3581 33.312 4.62774 35.6926 -1.05272C38.0731 -6.73318 46.5036 -6.36378 52.8048 -8.26506C59.0352 -10.0956 63.0656 -14.1261 65.0456 -16.106L67.096 -18.1566L76.996 -8.25682L74.9452 -6.20622C72.9656 -4.2263 68.9348 -0.195797 64.9044 3.83471C60.8032 7.93594 56.7728 11.9664 52.7424 15.9969C48.7116 20.0275 44.6812 24.058 40.6508 28.0885C36.6202 32.119 32.519 36.2202 28.4884 40.2508C24.458 44.2812 20.4275 48.3116 16.3969 52.3424C12.3665 56.3728 8.33593 60.4032 4.23469 64.5044C0.204198 68.5348 -3.82631 72.5656 -5.80623 74.5452L-7.85683 76.596L-24.3565 60.0964Z" fill="#1A181B"/>
<path fill-rule="evenodd" clip-rule="evenodd" d="M-36 75.6L-33.1009 76.0948C-30.2724 76.6608 -24.4742 77.6508 -22.9892 74.4688C-21.5043 71.2868 -24.1913 63.7912 -20.1608 63.1548C-16.1303 62.5184 -5.24084 68.5996 0.0624429 69.236C5.36576 69.8724 5.22432 64.9228 6.70924 61.7408C8.19416 58.5588 11.4469 57.0032 14.6288 55.518C17.8108 54.0332 21.0635 52.4776 23.397 50.144C25.7304 47.8108 27.286 44.558 27.0739 39.679C26.8618 34.7999 25.0233 28.1531 27.781 26.244C30.5388 24.3348 38.0341 27.0218 39.9433 24.2641C41.8524 21.5063 38.3169 13.1625 38.9533 9.13199C39.5897 5.10147 44.5396 5.24291 47.2972 3.33371C50.0548 1.42453 50.762 -2.67669 51.0448 -4.65657L51.3984 -6.70721L69.2176 11.1119L68.0156 12.314C66.884 13.4453 64.48 15.8495 62.1464 18.1829C59.8128 20.5164 57.4088 22.9206 55.0752 25.254C52.742 27.5875 50.3376 29.9916 48.0044 32.3251C45.6708 34.6585 43.2668 37.0627 40.9332 39.3961C38.5998 41.7296 36.1956 44.1336 33.8622 46.4672C31.5287 48.8008 29.1245 51.2048 26.7911 53.5384C24.4576 55.8716 22.0535 58.276 19.72 60.6092C17.3866 62.9428 14.9824 65.3468 12.649 67.6804C10.3155 70.014 7.91132 72.418 5.57788 74.7516C3.24442 77.0848 0.840261 79.4892 -1.49319 81.8224C-3.82665 84.156 -6.2308 86.56 -8.56424 88.8936C-10.8977 91.2272 -13.3019 93.6312 -14.4332 94.7624L-15.6353 95.9648L-36 75.6Z" fill="#8C52FF"/>
</g>
<mask id="mask2_541_63" style="mask-type:alpha" maskUnits="userSpaceOnUse" x="14" y="14" width="12" height="12">
<path d="M20 26C23.3137 26 26 23.3137 26 20C26 16.6863 23.3137 14 20 14C16.6863 14 14 16.6863 14 20C14 23.3137 16.6863 26 20 26Z" fill="#C68BDF"/>
</mask>
<g mask="url(#mask2_541_63)">
<path d="M26 14H14V26H26V14Z" fill="#1A181B"/>
<path fill-rule="evenodd" clip-rule="evenodd" d="M-24.3565 60.0964L-22.8559 57.4956C-21.4259 54.966 -18.4954 49.8352 -12.2649 48.0048C-5.96379 46.1036 3.56661 47.5728 7.04713 42.9924C10.5277 38.4119 7.95829 27.7815 12.5388 24.301C17.1193 20.8205 28.9203 24.4191 32.9509 20.3886C36.9814 16.3581 33.312 4.62774 35.6926 -1.05272C38.0731 -6.73318 46.5036 -6.36378 52.8048 -8.26506C59.0352 -10.0956 63.0656 -14.1261 65.0456 -16.106L67.096 -18.1566L76.996 -8.25682L74.9452 -6.20622C72.9656 -4.2263 68.9348 -0.195797 64.9044 3.83471C60.8032 7.93594 56.7728 11.9664 52.7424 15.9969C48.7116 20.0275 44.6812 24.058 40.6508 28.0885C36.6202 32.119 32.519 36.2202 28.4884 40.2508C24.458 44.2812 20.4275 48.3116 16.3969 52.3424C12.3665 56.3728 8.33593 60.4032 4.23469 64.5044C0.204198 68.5348 -3.82631 72.5656 -5.80623 74.5452L-7.85683 76.596L-24.3565 60.0964Z" fill="#8C52FF"/>
</g>
</g>
</svg>
